<svg width="17" height="20" viewBox="0 0 17 20" fill="none" xmlns="http://www.w3.org/2000/svg">
<path d="M15.731 6.81868C15.6153 6.90869 13.5713 8.06281 13.5713 10.6291C13.5713 13.5974 16.1722 14.6475 16.25 14.6735C16.238 14.7375 15.8368 16.1116 14.8787 17.5118C14.0244 18.7439 13.1321 19.974 11.7748 19.974C10.4175 19.974 10.0682 19.1839 8.50126 19.1839C6.97427 19.1839 6.43134 20 5.18978 20C3.94823 20 3.08193 18.8599 2.08589 17.4597C0.932164 15.8156 0 13.2613 0 10.8371C0 6.94869 2.52303 4.88649 5.00614 4.88649C6.32554 4.88649 7.42538 5.75458 8.25375 5.75458C9.04219 5.75458 10.2718 4.83448 11.7728 4.83448C12.3417 4.83448 14.3857 4.88649 15.731 6.81868ZM11.0602 3.18832C11.681 2.45024 12.1201 1.42614 12.1201 0.40204C12.1201 0.260026 12.1082 0.116012 12.0822 0C11.0722 0.0380038 9.87056 0.674067 9.14599 1.51615C8.57711 2.16422 8.04616 3.18832 8.04616 4.22642C8.04616 4.38244 8.0721 4.53845 8.08408 4.58846C8.14795 4.60046 8.25175 4.61446 8.35555 4.61446C9.26176 4.61446 10.4015 4.0064 11.0602 3.18832Z" fill="white" fill-opacity="0.8"/>
</svg>
