<svg width="30" height="30" viewBox="0 0 30 30" fill="none" xmlns="http://www.w3.org/2000/svg">
<path d="M5 2C3.35029 2 2 3.35029 2 5V24.2C2 25.8497 3.35029 27.2 5 27.2H15.0992C15.164 27.2107 15.2301 27.2107 15.2949 27.2H18.6992C18.764 27.2107 18.8301 27.2107 18.8949 27.2H24.2C25.8497 27.2 27.2 25.8497 27.2 24.2V5C27.2 3.35029 25.8497 2 24.2 2H5ZM5 3.2H24.2C25.2011 3.2 26 3.99891 26 5V24.2C26 25.2011 25.2011 26 24.2 26H19.4V17.6H21.6922L22.5324 13.4H19.4V12.2C19.4 11.8655 19.4318 11.8394 19.5441 11.7664C19.6565 11.6935 20.0035 11.6 20.6 11.6H22.4V8.22148L22.0578 8.05859C22.0578 8.05859 20.6796 7.4 18.8 7.4C17.45 7.4 16.341 7.93787 15.6313 8.825C14.9215 9.71213 14.6 10.9 14.6 12.2V13.4H12.8V17.6H14.6V26H5C3.99891 26 3.2 25.2011 3.2 24.2V5C3.2 3.99891 3.99891 3.2 5 3.2ZM18.8 8.6C20.0474 8.6 20.8324 8.87507 21.2 9.0207V10.4H20.6C19.9095 10.4 19.3562 10.4571 18.8902 10.7598C18.4243 11.0624 18.2 11.6369 18.2 12.2V14.6H21.0676L20.7078 16.4H18.2V26H15.8V16.4H14V14.6H15.8V12.2C15.8 11.1 16.0785 10.1879 16.5688 9.575C17.059 8.96213 17.75 8.6 18.8 8.6Z" fill="black"/>
</svg>
