<svg width="30" height="30" viewBox="0 0 30 30" fill="none" xmlns="http://www.w3.org/2000/svg">
<path d="M9.6 1.7998C5.29949 1.7998 1.8 5.29929 1.8 9.5998V20.3998C1.8 24.7003 5.29949 28.1998 9.6 28.1998H20.4C24.7005 28.1998 28.2 24.7003 28.2 20.3998V9.5998C28.2 5.29929 24.7005 1.7998 20.4 1.7998H9.6ZM9.6 2.9998H20.4C24.0519 2.9998 27 5.94791 27 9.5998V20.3998C27 24.0517 24.0519 26.9998 20.4 26.9998H9.6C5.94811 26.9998 3 24.0517 3 20.3998V9.5998C3 5.94791 5.94811 2.9998 9.6 2.9998ZM22.2 6.5998C21.8817 6.5998 21.5765 6.72623 21.3515 6.95128C21.1264 7.17632 21 7.48154 21 7.7998C21 8.11806 21.1264 8.42329 21.3515 8.64833C21.5765 8.87338 21.8817 8.9998 22.2 8.9998C22.5183 8.9998 22.8235 8.87338 23.0485 8.64833C23.2736 8.42329 23.4 8.11806 23.4 7.7998C23.4 7.48154 23.2736 7.17632 23.0485 6.95128C22.8235 6.72623 22.5183 6.5998 22.2 6.5998ZM15 8.3998C11.362 8.3998 8.4 11.3618 8.4 14.9998C8.4 18.6378 11.362 21.5998 15 21.5998C18.638 21.5998 21.6 18.6378 21.6 14.9998C21.6 11.3618 18.638 8.3998 15 8.3998ZM15 9.5998C17.9894 9.5998 20.4 12.0104 20.4 14.9998C20.4 17.9892 17.9894 20.3998 15 20.3998C12.0106 20.3998 9.6 17.9892 9.6 14.9998C9.6 12.0104 12.0106 9.5998 15 9.5998Z" fill="black"/>
</svg>
