<svg width="20" height="20" viewBox="0 0 20 20" fill="none" xmlns="http://www.w3.org/2000/svg">
<path d="M10.4745 0C10.6721 0.0362405 10.8712 0.0684544 11.0671 0.109057C13.1915 0.551326 14.5989 2.02645 14.6265 3.84183C14.6322 4.20525 14.6273 4.56899 14.6273 4.95891C14.7267 4.95891 14.8098 4.95891 14.893 4.95891C15.7743 4.95891 16.6552 4.95824 17.5366 4.95891C18.1478 4.95959 18.4755 5.19549 18.5335 5.69815C18.6386 6.60484 18.7306 7.51253 18.8292 8.41955C18.9809 9.81918 19.1338 11.2188 19.2855 12.6184C19.4177 13.8365 19.5487 15.0549 19.6805 16.273C19.7839 17.2257 19.8821 18.1783 19.9936 19.1303C20.0532 19.6394 19.6915 19.9984 19.0762 19.9987C13.0261 20.0004 6.97596 20.0004 0.925844 19.9987C0.323956 19.9987 -0.048777 19.6444 0.00516584 19.1478C0.240405 16.9901 0.472805 14.8321 0.70845 12.6745C0.953018 10.4326 1.19961 8.1907 1.4454 5.94915C1.45878 5.826 1.46446 5.70185 1.48961 5.58037C1.56991 5.19347 1.89519 4.96227 2.37297 4.96026C3.30906 4.95623 4.24556 4.95892 5.18165 4.95858C5.23559 4.95858 5.28953 4.95858 5.37633 4.95858C5.37633 4.79281 5.37673 4.63946 5.37633 4.48577C5.37471 3.94586 5.35848 3.40594 5.52437 2.87542C5.98836 1.39123 7.49592 0.266771 9.32957 0.0422806C9.3973 0.0338916 9.46341 0.0144291 9.52992 0C9.84466 0 10.1598 0 10.4745 0ZM18.1851 18.5495C17.745 14.4925 17.3066 10.4524 16.8678 6.40719H14.6391C14.635 6.47934 14.6289 6.54276 14.6285 6.60618C14.6273 6.96423 14.6362 7.32227 14.6245 7.67998C14.6111 8.08433 14.2375 8.38868 13.7695 8.39472C13.314 8.40042 12.9336 8.11285 12.8963 7.71689C12.8764 7.50347 12.889 7.28771 12.8882 7.07295C12.8874 6.85383 12.8882 6.6347 12.8882 6.40988H7.11669C7.11669 6.49209 7.11669 6.56222 7.11669 6.63236C7.11588 6.98369 7.12846 7.33569 7.11102 7.68669C7.09074 8.10178 6.69691 8.40579 6.22481 8.39438C5.75596 8.38298 5.39661 8.07762 5.37836 7.67159C5.37268 7.54173 5.37673 7.41119 5.37673 7.28099C5.37673 6.9904 5.37673 6.70014 5.37673 6.40753H3.13425C2.69501 10.4557 2.25697 14.4959 1.81691 18.5495H18.1851ZM12.8845 4.94885C12.8845 4.54181 12.8934 4.14619 12.8829 3.7509C12.8545 2.71502 11.9756 1.78887 10.7807 1.52546C9.51735 1.24694 8.228 1.67478 7.54337 2.57073C6.97352 3.31601 7.14752 4.13511 7.1171 4.94918L12.8845 4.94885Z" fill="white" fill-opacity="0.8"/>
</svg>
